<?xml version="1.0" encoding="utf-8"?>
<!-- Generator: Adobe Illustrator 16.0.0, SVG Export Plug-In . SVG Version: 6.00 Build 0)  -->
<!DOCTYPE svg PUBLIC "-//W3C//DTD SVG 1.1//EN" "http://www.w3.org/Graphics/SVG/1.1/DTD/svg11.dtd">
<svg version="1.1" id="Layer_1" xmlns="http://www.w3.org/2000/svg" xmlns:xlink="http://www.w3.org/1999/xlink" x="0px" y="0px"
	 width="50px" height="50px" viewBox="174.5 244.5 50 50" enable-background="new 174.5 244.5 50 50" xml:space="preserve">
<path d="M199.375,249.5c-11.027,0-20,8.972-20,20s8.973,20,20,20c11.029,0,20-8.972,20-20S210.404,249.5,199.375,249.5z
	 M210.461,275.2c-0.621,0.734-1.51,1.114-2.402,1.116c-0.723,0.001-1.447-0.243-2.041-0.746l-6.648-5.627l-6.629,5.649
	c-1.326,1.13-3.314,0.97-4.445-0.354c-1.129-1.327-0.971-3.316,0.355-4.446l8.666-7.387c1.176-1.001,2.904-1.004,4.082-0.007
	l8.693,7.356C211.422,271.881,211.586,273.871,210.461,275.2z"/>
</svg>
